<?xml version="1.0" encoding="UTF-8" standalone="no"?>
<!DOCTYPE svg PUBLIC "-//W3C//DTD SVG 1.1//EN" "http://www.w3.org/Graphics/SVG/1.1/DTD/svg11.dtd">
<svg width="100%" height="100%" viewBox="0 0 1313 204" version="1.1" xmlns="http://www.w3.org/2000/svg" xmlns:xlink="http://www.w3.org/1999/xlink" xml:space="preserve" xmlns:serif="http://www.serif.com/" style="fill-rule:evenodd;clip-rule:evenodd;stroke-linejoin:round;stroke-miterlimit:2;">
    <g transform="matrix(1,0,0,1,-1169.22,-5659.94)">
        <g transform="matrix(3.56408,0,0,3.56408,929.676,4477.52)">
            <g transform="matrix(62.0722,0,0,62.0722,69.1196,375.464)">
                <path d="M0.742,-0.672C0.647,-0.574 0.599,-0.467 0.597,-0.351L0.69,-0.351L0.69,-0.314L0.595,-0.314C0.592,-0.252 0.582,-0.195 0.564,-0.144C0.547,-0.093 0.525,-0.05 0.498,-0.015C0.471,0.02 0.44,0.049 0.405,0.073C0.337,0.118 0.26,0.141 0.174,0.141C0.074,0.141 0.009,0.106 -0.019,0.037C-0.027,0.018 -0.031,-0.004 -0.031,-0.029C-0.031,-0.053 -0.025,-0.078 -0.014,-0.104C-0.003,-0.13 0.011,-0.154 0.031,-0.175C0.05,-0.196 0.074,-0.213 0.103,-0.226C0.132,-0.24 0.163,-0.246 0.197,-0.246C0.203,-0.246 0.212,-0.245 0.226,-0.244C0.191,-0.297 0.173,-0.352 0.173,-0.408C0.173,-0.465 0.187,-0.515 0.216,-0.56C0.245,-0.605 0.285,-0.641 0.336,-0.666C0.387,-0.691 0.444,-0.704 0.507,-0.704C0.534,-0.704 0.573,-0.699 0.625,-0.688C0.677,-0.677 0.716,-0.672 0.742,-0.672ZM0.511,-0.351C0.521,-0.442 0.561,-0.528 0.63,-0.61C0.58,-0.631 0.528,-0.641 0.472,-0.641C0.392,-0.641 0.328,-0.62 0.28,-0.577C0.232,-0.534 0.208,-0.478 0.208,-0.409C0.208,-0.355 0.228,-0.299 0.267,-0.24L0.383,-0.207L0.373,-0.177C0.341,-0.188 0.312,-0.196 0.285,-0.201C0.292,-0.187 0.306,-0.165 0.327,-0.134L0.294,-0.123L0.243,-0.207C0.23,-0.21 0.214,-0.211 0.193,-0.211C0.172,-0.211 0.15,-0.206 0.126,-0.195C0.103,-0.184 0.084,-0.17 0.069,-0.152C0.038,-0.115 0.022,-0.076 0.022,-0.033C0.022,0.009 0.035,0.043 0.062,0.069C0.088,0.096 0.125,0.109 0.174,0.109C0.222,0.109 0.264,0.101 0.3,0.086C0.336,0.07 0.368,0.046 0.397,0.013C0.456,-0.054 0.493,-0.164 0.508,-0.315L0.403,-0.315L0.403,-0.351L0.511,-0.351Z" style="fill:white;fill-rule:nonzero;"/>
            </g>
            <g transform="matrix(62.0722,0,0,62.0722,109.4,375.464)">
                <path d="M0.386,-0.284C0.342,-0.168 0.32,-0.097 0.32,-0.073C0.32,-0.062 0.323,-0.057 0.328,-0.057C0.342,-0.057 0.363,-0.078 0.391,-0.12L0.412,-0.1C0.394,-0.069 0.374,-0.043 0.35,-0.023C0.327,-0.002 0.308,0.008 0.293,0.008C0.263,0.008 0.248,-0.007 0.248,-0.038C0.248,-0.062 0.253,-0.091 0.264,-0.125C0.275,-0.159 0.281,-0.176 0.281,-0.177L0.255,-0.133C0.252,-0.128 0.248,-0.12 0.241,-0.109C0.234,-0.099 0.229,-0.09 0.224,-0.084C0.22,-0.078 0.214,-0.07 0.207,-0.061C0.199,-0.052 0.193,-0.044 0.187,-0.039C0.182,-0.033 0.175,-0.027 0.167,-0.02C0.159,-0.014 0.152,-0.008 0.145,-0.005C0.128,0.004 0.112,0.008 0.097,0.008C0.058,0.008 0.039,-0.014 0.039,-0.056C0.039,-0.076 0.046,-0.106 0.06,-0.147C0.074,-0.188 0.081,-0.213 0.081,-0.22C0.081,-0.227 0.078,-0.231 0.074,-0.231C0.061,-0.231 0.043,-0.21 0.02,-0.169L-0.012,-0.188C0.032,-0.259 0.075,-0.295 0.117,-0.295C0.13,-0.295 0.141,-0.291 0.149,-0.283C0.158,-0.276 0.161,-0.264 0.161,-0.248C0.16,-0.233 0.152,-0.204 0.137,-0.164C0.122,-0.123 0.114,-0.092 0.114,-0.071C0.114,-0.059 0.119,-0.053 0.13,-0.053C0.142,-0.053 0.157,-0.061 0.174,-0.077C0.191,-0.093 0.208,-0.112 0.224,-0.135C0.249,-0.171 0.275,-0.213 0.303,-0.261L0.316,-0.284L0.386,-0.284Z" style="fill:white;fill-rule:nonzero;"/>
            </g>
            <g transform="matrix(62.0722,0,0,62.0722,136.556,375.464)">
                <path d="M0.045,-0.003C0.024,-0.011 0.009,-0.02 0,-0.03C-0.009,-0.04 -0.014,-0.052 -0.014,-0.064C-0.014,-0.076 -0.01,-0.087 -0.003,-0.095C0.003,-0.103 0.012,-0.107 0.024,-0.107C0.035,-0.107 0.045,-0.104 0.053,-0.097C0.062,-0.09 0.066,-0.081 0.066,-0.069C0.066,-0.056 0.059,-0.046 0.044,-0.038C0.056,-0.027 0.075,-0.022 0.101,-0.022C0.156,-0.022 0.183,-0.038 0.183,-0.069C0.183,-0.088 0.166,-0.104 0.131,-0.116C0.117,-0.121 0.102,-0.126 0.088,-0.131C0.073,-0.137 0.061,-0.145 0.05,-0.156C0.039,-0.167 0.033,-0.18 0.032,-0.195C0.032,-0.217 0.04,-0.236 0.054,-0.251C0.082,-0.28 0.123,-0.295 0.178,-0.295C0.205,-0.295 0.229,-0.29 0.25,-0.28C0.271,-0.269 0.281,-0.256 0.281,-0.24C0.281,-0.223 0.277,-0.212 0.269,-0.205C0.26,-0.197 0.251,-0.194 0.24,-0.194C0.229,-0.194 0.219,-0.197 0.212,-0.203C0.204,-0.209 0.2,-0.217 0.2,-0.228C0.2,-0.239 0.207,-0.248 0.219,-0.256C0.211,-0.261 0.198,-0.264 0.179,-0.264C0.16,-0.264 0.142,-0.261 0.127,-0.256C0.112,-0.25 0.104,-0.242 0.104,-0.232C0.104,-0.223 0.11,-0.215 0.121,-0.208C0.132,-0.201 0.146,-0.195 0.162,-0.19C0.178,-0.184 0.194,-0.178 0.209,-0.171C0.225,-0.164 0.239,-0.153 0.25,-0.14C0.261,-0.127 0.267,-0.11 0.267,-0.091C0.267,-0.071 0.259,-0.054 0.243,-0.038C0.213,-0.007 0.172,0.008 0.119,0.008C0.091,0.008 0.067,0.004 0.045,-0.003Z" style="fill:white;fill-rule:nonzero;"/>
            </g>
            <g transform="matrix(62.0722,0,0,62.0722,156.469,375.464)">
                <path d="M0.066,-0.284C0.1,-0.388 0.134,-0.476 0.169,-0.546L0.229,-0.541C0.226,-0.531 0.217,-0.506 0.203,-0.466C0.173,-0.378 0.153,-0.318 0.145,-0.284L0.221,-0.284L0.213,-0.252L0.134,-0.252C0.104,-0.16 0.089,-0.103 0.089,-0.083C0.089,-0.063 0.091,-0.053 0.095,-0.053C0.1,-0.053 0.103,-0.054 0.106,-0.056C0.115,-0.061 0.134,-0.084 0.163,-0.127L0.183,-0.109C0.161,-0.069 0.139,-0.04 0.116,-0.021C0.093,-0.002 0.074,0.008 0.059,0.008C0.044,0.008 0.032,0.003 0.025,-0.008C0.017,-0.018 0.013,-0.032 0.013,-0.048C0.013,-0.089 0.028,-0.157 0.057,-0.252L0.005,-0.252L0.013,-0.284L0.066,-0.284Z" style="fill:white;fill-rule:nonzero;"/>
            </g>
            <g transform="matrix(62.0722,0,0,62.0722,180.686,375.464)">
                <path d="M0.13,-0L0.046,-0L0.054,-0.032C0.102,-0.229 0.128,-0.333 0.131,-0.344C0.125,-0.34 0.1,-0.328 0.058,-0.309L0.041,-0.333C0.08,-0.351 0.112,-0.368 0.135,-0.383C0.158,-0.397 0.174,-0.408 0.184,-0.413L0.224,-0.413L0.13,-0ZM0.142,-0.049L0.142,-0.046C0.142,-0.039 0.147,-0.033 0.158,-0.027C0.168,-0.022 0.179,-0.019 0.19,-0.018L0.188,-0L-0.001,-0L0.001,-0.018C0.013,-0.018 0.023,-0.021 0.033,-0.026C0.047,-0.034 0.056,-0.041 0.058,-0.049L0.142,-0.049Z" style="fill:white;fill-rule:nonzero;"/>
            </g>
            <g transform="matrix(62.0722,0,0,62.0722,207.448,375.464)">
                <path d="M0.311,-0L0.239,-0L0.248,-0.032C0.251,-0.045 0.257,-0.063 0.266,-0.088C0.285,-0.141 0.294,-0.182 0.294,-0.212C0.294,-0.225 0.289,-0.231 0.278,-0.231C0.264,-0.231 0.249,-0.223 0.231,-0.207C0.213,-0.191 0.195,-0.172 0.179,-0.149C0.151,-0.111 0.124,-0.069 0.097,-0.023L0.083,-0L0.014,-0C0.014,-0 0.019,-0.015 0.029,-0.046C0.058,-0.131 0.072,-0.181 0.072,-0.197C0.072,-0.212 0.069,-0.22 0.064,-0.22C0.055,-0.22 0.043,-0.209 0.03,-0.187L0.016,-0.163C0.014,-0.158 0.012,-0.156 0.012,-0.155L-0.021,-0.174C0.004,-0.215 0.028,-0.246 0.049,-0.265C0.07,-0.285 0.092,-0.295 0.114,-0.295C0.124,-0.295 0.133,-0.291 0.14,-0.282C0.147,-0.274 0.151,-0.264 0.151,-0.252C0.151,-0.241 0.15,-0.23 0.149,-0.221C0.148,-0.212 0.146,-0.204 0.145,-0.197C0.143,-0.189 0.141,-0.18 0.138,-0.17C0.135,-0.16 0.132,-0.152 0.131,-0.146C0.129,-0.14 0.126,-0.133 0.124,-0.124C0.121,-0.114 0.119,-0.109 0.118,-0.107C0.125,-0.118 0.135,-0.135 0.15,-0.158C0.165,-0.181 0.174,-0.195 0.179,-0.201C0.184,-0.207 0.19,-0.215 0.198,-0.225C0.206,-0.234 0.212,-0.242 0.219,-0.248C0.225,-0.253 0.232,-0.259 0.24,-0.266C0.249,-0.273 0.257,-0.278 0.264,-0.282C0.282,-0.291 0.301,-0.295 0.32,-0.295C0.338,-0.295 0.353,-0.29 0.362,-0.279C0.372,-0.268 0.377,-0.256 0.377,-0.242C0.377,-0.228 0.375,-0.213 0.37,-0.198C0.366,-0.182 0.36,-0.165 0.352,-0.144C0.344,-0.124 0.339,-0.11 0.337,-0.103C0.368,-0.154 0.392,-0.19 0.409,-0.21C0.454,-0.267 0.499,-0.295 0.543,-0.295C0.565,-0.295 0.58,-0.29 0.59,-0.279C0.599,-0.269 0.604,-0.255 0.604,-0.237C0.604,-0.219 0.596,-0.189 0.581,-0.148C0.566,-0.106 0.558,-0.081 0.558,-0.071C0.558,-0.062 0.561,-0.057 0.567,-0.057C0.58,-0.057 0.601,-0.078 0.629,-0.119L0.65,-0.1C0.631,-0.065 0.61,-0.039 0.586,-0.02C0.563,-0.002 0.544,0.008 0.527,0.008C0.511,0.008 0.499,0.002 0.493,-0.008C0.486,-0.019 0.483,-0.032 0.483,-0.047C0.483,-0.061 0.489,-0.088 0.502,-0.125C0.515,-0.163 0.522,-0.192 0.522,-0.212C0.522,-0.225 0.516,-0.231 0.505,-0.231C0.472,-0.231 0.425,-0.183 0.364,-0.088C0.339,-0.049 0.321,-0.02 0.311,-0Z" style="fill:white;fill-rule:nonzero;"/>
            </g>
            <g transform="matrix(62.0722,0,0,62.0722,249.396,375.464)">
                <path d="M-0,-0.116C-0,-0.141 0.005,-0.164 0.017,-0.187C0.029,-0.209 0.045,-0.229 0.063,-0.244C0.105,-0.278 0.148,-0.295 0.191,-0.295C0.234,-0.295 0.27,-0.283 0.297,-0.26C0.325,-0.237 0.339,-0.208 0.339,-0.174C0.339,-0.139 0.329,-0.108 0.31,-0.08C0.291,-0.052 0.266,-0.031 0.235,-0.015C0.204,0 0.17,0.008 0.133,0.008C0.096,0.008 0.064,-0.004 0.038,-0.027C0.012,-0.05 -0,-0.08 -0,-0.116ZM0.159,-0.022C0.174,-0.022 0.188,-0.027 0.201,-0.037C0.215,-0.047 0.225,-0.06 0.231,-0.075C0.245,-0.105 0.251,-0.136 0.251,-0.168C0.251,-0.2 0.246,-0.224 0.234,-0.24C0.222,-0.257 0.206,-0.265 0.184,-0.265C0.163,-0.265 0.141,-0.251 0.12,-0.223C0.099,-0.195 0.089,-0.16 0.089,-0.116C0.089,-0.054 0.112,-0.022 0.159,-0.022Z" style="fill:white;fill-rule:nonzero;"/>
            </g>
            <g transform="matrix(62.0722,0,0,62.0722,272.885,375.464)">
                <path d="M0.268,-0.231C0.256,-0.231 0.241,-0.223 0.224,-0.207C0.207,-0.191 0.191,-0.172 0.175,-0.149C0.149,-0.113 0.124,-0.071 0.097,-0.023L0.084,-0L0.015,-0C0.015,-0 0.02,-0.015 0.03,-0.046C0.059,-0.131 0.073,-0.181 0.073,-0.197C0.073,-0.212 0.07,-0.22 0.065,-0.22C0.056,-0.22 0.044,-0.209 0.031,-0.187L0.017,-0.163C0.015,-0.158 0.013,-0.156 0.013,-0.155L-0.02,-0.174C0.005,-0.215 0.029,-0.246 0.05,-0.265C0.071,-0.285 0.093,-0.295 0.115,-0.295C0.125,-0.295 0.134,-0.291 0.141,-0.282C0.148,-0.274 0.152,-0.264 0.152,-0.252C0.152,-0.241 0.151,-0.23 0.15,-0.221C0.149,-0.212 0.147,-0.204 0.146,-0.197C0.144,-0.189 0.142,-0.18 0.139,-0.17C0.136,-0.16 0.133,-0.152 0.132,-0.146C0.13,-0.14 0.127,-0.133 0.125,-0.124C0.122,-0.114 0.12,-0.109 0.119,-0.107C0.125,-0.119 0.135,-0.136 0.149,-0.159C0.163,-0.181 0.172,-0.196 0.176,-0.202C0.181,-0.208 0.186,-0.215 0.194,-0.225C0.201,-0.235 0.208,-0.242 0.214,-0.248C0.219,-0.253 0.226,-0.259 0.234,-0.266C0.242,-0.273 0.25,-0.279 0.257,-0.282C0.275,-0.291 0.293,-0.295 0.31,-0.295C0.326,-0.295 0.34,-0.29 0.35,-0.28C0.361,-0.27 0.366,-0.259 0.366,-0.245C0.366,-0.232 0.362,-0.221 0.353,-0.211C0.345,-0.201 0.335,-0.196 0.324,-0.196C0.314,-0.196 0.305,-0.198 0.299,-0.201C0.293,-0.205 0.288,-0.209 0.286,-0.213C0.279,-0.225 0.273,-0.231 0.268,-0.231Z" style="fill:white;fill-rule:nonzero;"/>
            </g>
            <g transform="matrix(62.0722,0,0,62.0722,294.798,375.464)">
                <path d="M0.09,-0.096C0.092,-0.059 0.117,-0.04 0.166,-0.04C0.183,-0.04 0.202,-0.045 0.221,-0.055C0.241,-0.066 0.257,-0.078 0.269,-0.092L0.29,-0.078C0.263,-0.033 0.219,-0.005 0.16,0.005C0.147,0.007 0.135,0.008 0.123,0.008C0.087,0.008 0.058,-0.004 0.035,-0.027C0.011,-0.05 -0,-0.079 -0,-0.112C-0,-0.146 0.01,-0.177 0.03,-0.205C0.051,-0.234 0.076,-0.256 0.107,-0.271C0.138,-0.287 0.168,-0.295 0.198,-0.295C0.228,-0.295 0.254,-0.288 0.276,-0.274C0.298,-0.261 0.309,-0.242 0.31,-0.219C0.31,-0.196 0.304,-0.176 0.29,-0.159C0.276,-0.143 0.258,-0.13 0.236,-0.121C0.194,-0.104 0.152,-0.095 0.111,-0.095L0.09,-0.096ZM0.087,-0.123C0.123,-0.124 0.152,-0.13 0.174,-0.14C0.196,-0.151 0.211,-0.162 0.22,-0.176C0.229,-0.189 0.233,-0.203 0.233,-0.217C0.233,-0.232 0.229,-0.242 0.222,-0.249C0.214,-0.256 0.206,-0.26 0.198,-0.26C0.177,-0.26 0.158,-0.253 0.14,-0.238C0.123,-0.224 0.11,-0.206 0.101,-0.185C0.091,-0.165 0.087,-0.144 0.087,-0.123Z" style="fill:white;fill-rule:nonzero;"/>
            </g>
            <g transform="matrix(62.0722,0,0,62.0722,326.804,375.464)">
                <path d="M0.045,-0.003C0.024,-0.011 0.009,-0.02 0,-0.03C-0.009,-0.04 -0.014,-0.052 -0.014,-0.064C-0.014,-0.076 -0.01,-0.087 -0.003,-0.095C0.003,-0.103 0.012,-0.107 0.024,-0.107C0.035,-0.107 0.045,-0.104 0.053,-0.097C0.062,-0.09 0.066,-0.081 0.066,-0.069C0.066,-0.056 0.059,-0.046 0.044,-0.038C0.056,-0.027 0.075,-0.022 0.101,-0.022C0.156,-0.022 0.183,-0.038 0.183,-0.069C0.183,-0.088 0.166,-0.104 0.131,-0.116C0.117,-0.121 0.102,-0.126 0.088,-0.131C0.073,-0.137 0.061,-0.145 0.05,-0.156C0.039,-0.167 0.033,-0.18 0.032,-0.195C0.032,-0.217 0.04,-0.236 0.054,-0.251C0.082,-0.28 0.123,-0.295 0.178,-0.295C0.205,-0.295 0.229,-0.29 0.25,-0.28C0.271,-0.269 0.281,-0.256 0.281,-0.24C0.281,-0.223 0.277,-0.212 0.269,-0.205C0.26,-0.197 0.251,-0.194 0.24,-0.194C0.229,-0.194 0.219,-0.197 0.212,-0.203C0.204,-0.209 0.2,-0.217 0.2,-0.228C0.2,-0.239 0.207,-0.248 0.219,-0.256C0.211,-0.261 0.198,-0.264 0.179,-0.264C0.16,-0.264 0.142,-0.261 0.127,-0.256C0.112,-0.25 0.104,-0.242 0.104,-0.232C0.104,-0.223 0.11,-0.215 0.121,-0.208C0.132,-0.201 0.146,-0.195 0.162,-0.19C0.178,-0.184 0.194,-0.178 0.209,-0.171C0.225,-0.164 0.239,-0.153 0.25,-0.14C0.261,-0.127 0.267,-0.11 0.267,-0.091C0.267,-0.071 0.259,-0.054 0.243,-0.038C0.213,-0.007 0.172,0.008 0.119,0.008C0.091,0.008 0.067,0.004 0.045,-0.003Z" style="fill:white;fill-rule:nonzero;"/>
            </g>
            <g transform="matrix(62.0722,0,0,62.0722,346.717,375.464)">
                <path d="M0.066,-0.284C0.1,-0.388 0.134,-0.476 0.169,-0.546L0.229,-0.541C0.226,-0.531 0.217,-0.506 0.203,-0.466C0.173,-0.378 0.153,-0.318 0.145,-0.284L0.221,-0.284L0.213,-0.252L0.134,-0.252C0.104,-0.16 0.089,-0.103 0.089,-0.083C0.089,-0.063 0.091,-0.053 0.095,-0.053C0.1,-0.053 0.103,-0.054 0.106,-0.056C0.115,-0.061 0.134,-0.084 0.163,-0.127L0.183,-0.109C0.161,-0.069 0.139,-0.04 0.116,-0.021C0.093,-0.002 0.074,0.008 0.059,0.008C0.044,0.008 0.032,0.003 0.025,-0.008C0.017,-0.018 0.013,-0.032 0.013,-0.048C0.013,-0.089 0.028,-0.157 0.057,-0.252L0.005,-0.252L0.013,-0.284L0.066,-0.284Z" style="fill:white;fill-rule:nonzero;"/>
            </g>
            <g transform="matrix(62.0722,0,0,62.0722,360.326,375.464)">
                <path d="M0.09,-0.096C0.092,-0.059 0.117,-0.04 0.166,-0.04C0.183,-0.04 0.202,-0.045 0.221,-0.055C0.241,-0.066 0.257,-0.078 0.269,-0.092L0.29,-0.078C0.263,-0.033 0.219,-0.005 0.16,0.005C0.147,0.007 0.135,0.008 0.123,0.008C0.087,0.008 0.058,-0.004 0.035,-0.027C0.011,-0.05 -0,-0.079 -0,-0.112C-0,-0.146 0.01,-0.177 0.03,-0.205C0.051,-0.234 0.076,-0.256 0.107,-0.271C0.138,-0.287 0.168,-0.295 0.198,-0.295C0.228,-0.295 0.254,-0.288 0.276,-0.274C0.298,-0.261 0.309,-0.242 0.31,-0.219C0.31,-0.196 0.304,-0.176 0.29,-0.159C0.276,-0.143 0.258,-0.13 0.236,-0.121C0.194,-0.104 0.152,-0.095 0.111,-0.095L0.09,-0.096ZM0.087,-0.123C0.123,-0.124 0.152,-0.13 0.174,-0.14C0.196,-0.151 0.211,-0.162 0.22,-0.176C0.229,-0.189 0.233,-0.203 0.233,-0.217C0.233,-0.232 0.229,-0.242 0.222,-0.249C0.214,-0.256 0.206,-0.26 0.198,-0.26C0.177,-0.26 0.158,-0.253 0.14,-0.238C0.123,-0.224 0.11,-0.206 0.101,-0.185C0.091,-0.165 0.087,-0.144 0.087,-0.123Z" style="fill:white;fill-rule:nonzero;"/>
            </g>
            <g transform="matrix(62.0722,0,0,62.0722,381.723,375.464)">
                <path d="M0.336,-0.094C0.322,-0.064 0.301,-0.04 0.274,-0.021C0.247,-0.002 0.216,0.008 0.182,0.008C0.147,0.008 0.119,-0.006 0.098,-0.032C0.083,0.028 0.07,0.071 0.059,0.097C0.025,0.176 -0.021,0.216 -0.08,0.217C-0.094,0.217 -0.106,0.212 -0.116,0.202C-0.126,0.192 -0.131,0.181 -0.131,0.168C-0.131,0.155 -0.128,0.145 -0.121,0.138C-0.115,0.131 -0.106,0.127 -0.095,0.127C-0.084,0.127 -0.076,0.129 -0.068,0.135C-0.061,0.14 -0.058,0.147 -0.058,0.158C-0.058,0.169 -0.063,0.18 -0.075,0.192L-0.072,0.196C-0.052,0.196 -0.033,0.166 -0.017,0.107C-0.01,0.084 -0.005,0.065 -0.002,0.052C0,0.038 0.002,0.03 0.003,0.028L0.054,-0.174C0.038,-0.163 0.018,-0.143 -0.007,-0.113L-0.026,-0.135C-0.012,-0.155 0.005,-0.174 0.025,-0.193C0.044,-0.212 0.057,-0.224 0.062,-0.229C0.087,-0.305 0.112,-0.361 0.136,-0.398C0.16,-0.436 0.188,-0.466 0.218,-0.488L0.231,-0.476C0.21,-0.452 0.193,-0.421 0.179,-0.383C0.164,-0.345 0.155,-0.309 0.151,-0.274C0.186,-0.288 0.219,-0.295 0.25,-0.295C0.282,-0.295 0.308,-0.285 0.328,-0.265C0.349,-0.245 0.359,-0.219 0.359,-0.187C0.359,-0.154 0.351,-0.123 0.336,-0.094ZM0.146,-0.23L0.109,-0.066C0.115,-0.053 0.125,-0.044 0.138,-0.037C0.152,-0.031 0.168,-0.027 0.186,-0.027C0.203,-0.027 0.22,-0.035 0.235,-0.05C0.263,-0.079 0.277,-0.116 0.277,-0.162C0.277,-0.203 0.266,-0.231 0.244,-0.245C0.235,-0.251 0.223,-0.254 0.209,-0.254C0.194,-0.254 0.173,-0.246 0.146,-0.23Z" style="fill:white;fill-rule:nonzero;"/>
            </g>
            <g transform="matrix(62.0722,0,0,62.0722,406.425,375.464)">
                <path d="M0.091,-0.088C0.105,-0.088 0.116,-0.084 0.124,-0.076C0.132,-0.069 0.137,-0.057 0.137,-0.041C0.137,-0.025 0.131,-0.013 0.121,-0.003C0.11,0.006 0.098,0.011 0.085,0.011C0.072,0.011 0.061,0.007 0.052,-0.001C0.043,-0.009 0.039,-0.021 0.039,-0.036C0.039,-0.051 0.044,-0.064 0.055,-0.073C0.066,-0.083 0.078,-0.088 0.091,-0.088Z" style="fill:white;fill-rule:nonzero;"/>
            </g>
            <g transform="matrix(62.0722,0,0,62.0722,416.639,375.464)">
                <path d="M0.091,-0.088C0.105,-0.088 0.116,-0.084 0.124,-0.076C0.132,-0.069 0.137,-0.057 0.137,-0.041C0.137,-0.025 0.131,-0.013 0.121,-0.003C0.11,0.006 0.098,0.011 0.085,0.011C0.072,0.011 0.061,0.007 0.052,-0.001C0.043,-0.009 0.039,-0.021 0.039,-0.036C0.039,-0.051 0.044,-0.064 0.055,-0.073C0.066,-0.083 0.078,-0.088 0.091,-0.088Z" style="fill:white;fill-rule:nonzero;"/>
            </g>
            <g transform="matrix(62.0722,0,0,62.0722,426.853,375.464)">
                <path d="M0.091,-0.088C0.105,-0.088 0.116,-0.084 0.124,-0.076C0.132,-0.069 0.137,-0.057 0.137,-0.041C0.137,-0.025 0.131,-0.013 0.121,-0.003C0.11,0.006 0.098,0.011 0.085,0.011C0.072,0.011 0.061,0.007 0.052,-0.001C0.043,-0.009 0.039,-0.021 0.039,-0.036C0.039,-0.051 0.044,-0.064 0.055,-0.073C0.066,-0.083 0.078,-0.088 0.091,-0.088Z" style="fill:white;fill-rule:nonzero;"/>
            </g>
        </g>
    </g>
</svg>
