<?xml version="1.0" encoding="UTF-8" standalone="no"?>
<!DOCTYPE svg PUBLIC "-//W3C//DTD SVG 1.1//EN" "http://www.w3.org/Graphics/SVG/1.1/DTD/svg11.dtd">
<svg width="100%" height="100%" viewBox="0 0 133 147" version="1.1" xmlns="http://www.w3.org/2000/svg" xmlns:xlink="http://www.w3.org/1999/xlink" xml:space="preserve" xmlns:serif="http://www.serif.com/" style="fill-rule:evenodd;clip-rule:evenodd;stroke-linejoin:round;stroke-miterlimit:1.41421;">
    <g transform="matrix(1.13225,0,0,1.13225,-2587.19,-186.682)">
        <g transform="matrix(1.17506,0,0,1.17506,-401.092,-35.7307)">
            <path d="M2322.72,170.718C2343.04,170.718 2359.53,187.211 2359.53,207.527C2359.53,227.842 2343.04,244.336 2322.72,244.336C2302.41,244.336 2285.91,227.842 2285.91,207.527C2285.91,187.211 2302.41,170.718 2322.72,170.718ZM2322.72,183.137C2336.18,183.137 2347.11,194.066 2347.11,207.527C2347.11,220.988 2336.18,231.916 2322.72,231.916C2309.26,231.916 2298.33,220.988 2298.33,207.527C2298.33,194.066 2309.26,183.137 2322.72,183.137Z" style="fill:rgb(137,157,65);"/>
        </g>
        <g transform="matrix(0.515805,-0.42658,0.617538,0.746704,1009.39,985.116)">
            <path d="M2276.06,291.331C2276.06,284.887 2268.49,279.656 2259.16,279.656C2249.83,279.656 2242.26,284.887 2242.26,291.331L2242.26,350.382C2242.26,356.826 2249.83,362.058 2259.16,362.058C2268.49,362.058 2276.06,356.826 2276.06,350.382L2276.06,291.331Z" style="fill:rgb(137,157,65);"/>
        </g>
    </g>
</svg>
