<?xml version="1.0" encoding="UTF-8" standalone="no"?>
<!DOCTYPE svg PUBLIC "-//W3C//DTD SVG 1.1//EN" "http://www.w3.org/Graphics/SVG/1.1/DTD/svg11.dtd">
<svg width="100%" height="100%" viewBox="0 0 765 159" version="1.1" xmlns="http://www.w3.org/2000/svg" xmlns:xlink="http://www.w3.org/1999/xlink" xml:space="preserve" xmlns:serif="http://www.serif.com/" style="fill-rule:evenodd;clip-rule:evenodd;stroke-linejoin:round;stroke-miterlimit:2;">
    <g transform="matrix(1,0,0,1,-1600.43,-5692.98)">
        <g transform="matrix(3.56408,0,0,3.56408,1346.52,4510.56)">
            <g transform="matrix(62.0722,0,0,62.0722,69.1196,375.464)">
                <path d="M0.612,-0L0.572,-0C0.587,-0.064 0.616,-0.212 0.659,-0.443L0.682,-0.565C0.641,-0.514 0.591,-0.447 0.533,-0.361C0.475,-0.276 0.394,-0.156 0.292,-0L0.201,-0C0.222,-0.039 0.244,-0.097 0.268,-0.176C0.313,-0.326 0.336,-0.443 0.336,-0.526C0.336,-0.625 0.306,-0.675 0.246,-0.675C0.22,-0.675 0.196,-0.668 0.174,-0.655C0.153,-0.641 0.135,-0.624 0.122,-0.603C0.109,-0.582 0.098,-0.558 0.089,-0.531C0.073,-0.483 0.064,-0.434 0.064,-0.384C0.064,-0.334 0.072,-0.287 0.086,-0.243C0.101,-0.198 0.125,-0.165 0.157,-0.143L0.134,-0.124C0.1,-0.153 0.074,-0.191 0.058,-0.239C0.042,-0.286 0.034,-0.33 0.034,-0.37C0.034,-0.409 0.037,-0.443 0.042,-0.472C0.046,-0.5 0.054,-0.528 0.066,-0.556C0.077,-0.585 0.091,-0.609 0.107,-0.631C0.123,-0.653 0.144,-0.67 0.169,-0.684C0.194,-0.697 0.223,-0.704 0.254,-0.704C0.285,-0.704 0.312,-0.699 0.335,-0.688C0.358,-0.678 0.376,-0.663 0.389,-0.644C0.414,-0.607 0.426,-0.559 0.426,-0.499C0.426,-0.404 0.392,-0.275 0.323,-0.112C0.431,-0.292 0.515,-0.423 0.576,-0.503C0.632,-0.576 0.683,-0.632 0.729,-0.671L0.764,-0.655L0.676,-0.085C0.747,-0.133 0.804,-0.192 0.849,-0.261C0.893,-0.33 0.923,-0.403 0.938,-0.481C0.906,-0.496 0.878,-0.516 0.855,-0.541C0.833,-0.565 0.821,-0.591 0.821,-0.617C0.821,-0.644 0.828,-0.665 0.843,-0.681C0.857,-0.696 0.874,-0.704 0.893,-0.704C0.913,-0.704 0.929,-0.701 0.941,-0.693C0.953,-0.686 0.962,-0.676 0.968,-0.664C0.981,-0.64 0.987,-0.613 0.987,-0.583C0.987,-0.553 0.985,-0.523 0.979,-0.493C1.003,-0.481 1.028,-0.472 1.055,-0.467L1.048,-0.444C1.007,-0.454 0.982,-0.461 0.973,-0.465C0.953,-0.368 0.912,-0.279 0.852,-0.2C0.791,-0.121 0.711,-0.054 0.612,-0ZM0.875,-0.613C0.879,-0.575 0.902,-0.542 0.944,-0.512C0.95,-0.538 0.952,-0.559 0.952,-0.575C0.952,-0.592 0.952,-0.603 0.951,-0.608C0.951,-0.614 0.95,-0.621 0.948,-0.63C0.944,-0.648 0.933,-0.657 0.916,-0.657C0.904,-0.657 0.895,-0.653 0.887,-0.645C0.879,-0.637 0.875,-0.627 0.875,-0.616L0.875,-0.613Z" style="fill:white;fill-rule:nonzero;"/>
            </g>
            <g transform="matrix(62.0722,0,0,62.0722,125.918,375.464)">
                <path d="M0.09,-0.096C0.092,-0.059 0.117,-0.04 0.166,-0.04C0.183,-0.04 0.202,-0.045 0.221,-0.055C0.241,-0.066 0.257,-0.078 0.269,-0.092L0.29,-0.078C0.263,-0.033 0.219,-0.005 0.16,0.005C0.147,0.007 0.135,0.008 0.123,0.008C0.087,0.008 0.058,-0.004 0.035,-0.027C0.011,-0.05 -0,-0.079 -0,-0.112C-0,-0.146 0.01,-0.177 0.03,-0.205C0.051,-0.234 0.076,-0.256 0.107,-0.271C0.138,-0.287 0.168,-0.295 0.198,-0.295C0.228,-0.295 0.254,-0.288 0.276,-0.274C0.298,-0.261 0.309,-0.242 0.31,-0.219C0.31,-0.196 0.304,-0.176 0.29,-0.159C0.276,-0.143 0.258,-0.13 0.236,-0.121C0.194,-0.104 0.152,-0.095 0.111,-0.095L0.09,-0.096ZM0.087,-0.123C0.123,-0.124 0.152,-0.13 0.174,-0.14C0.196,-0.151 0.211,-0.162 0.22,-0.176C0.229,-0.189 0.233,-0.203 0.233,-0.217C0.233,-0.232 0.229,-0.242 0.222,-0.249C0.214,-0.256 0.206,-0.26 0.198,-0.26C0.177,-0.26 0.158,-0.253 0.14,-0.238C0.123,-0.224 0.11,-0.206 0.101,-0.185C0.091,-0.165 0.087,-0.144 0.087,-0.123Z" style="fill:white;fill-rule:nonzero;"/>
            </g>
            <g transform="matrix(62.0722,0,0,62.0722,147.316,375.464)">
                <path d="M0.182,-0.649L0.261,-0.649C0.247,-0.625 0.225,-0.572 0.196,-0.489C0.167,-0.406 0.141,-0.323 0.117,-0.239C0.093,-0.155 0.081,-0.104 0.081,-0.085C0.081,-0.066 0.083,-0.057 0.088,-0.057C0.102,-0.057 0.123,-0.078 0.152,-0.119L0.172,-0.1C0.158,-0.075 0.143,-0.054 0.126,-0.037C0.097,-0.007 0.073,0.008 0.055,0.008C0.021,0.008 0.005,-0.012 0.005,-0.052C0.005,-0.112 0.025,-0.206 0.064,-0.334C0.104,-0.462 0.143,-0.567 0.182,-0.649Z" style="fill:white;fill-rule:nonzero;"/>
            </g>
            <g transform="matrix(62.0722,0,0,62.0722,159.621,375.464)">
                <path d="M0.254,-0.101L0.274,-0.087C0.26,-0.058 0.238,-0.035 0.208,-0.018C0.178,-0.001 0.147,0.008 0.114,0.008C0.082,0.008 0.054,-0.002 0.032,-0.022C0.01,-0.042 -0.001,-0.07 -0.001,-0.106C-0.001,-0.142 0.01,-0.175 0.032,-0.205C0.054,-0.234 0.082,-0.256 0.114,-0.272C0.147,-0.287 0.18,-0.295 0.213,-0.295C0.254,-0.295 0.281,-0.285 0.295,-0.266C0.301,-0.258 0.304,-0.248 0.304,-0.236C0.304,-0.224 0.3,-0.214 0.292,-0.206C0.283,-0.198 0.274,-0.194 0.262,-0.194C0.251,-0.194 0.241,-0.198 0.233,-0.205C0.226,-0.212 0.222,-0.222 0.222,-0.233C0.222,-0.244 0.229,-0.255 0.243,-0.264C0.23,-0.268 0.219,-0.27 0.208,-0.27C0.186,-0.27 0.165,-0.262 0.146,-0.245C0.128,-0.229 0.113,-0.208 0.104,-0.185C0.094,-0.161 0.089,-0.138 0.089,-0.115C0.089,-0.092 0.094,-0.074 0.105,-0.06C0.116,-0.046 0.132,-0.04 0.152,-0.04C0.173,-0.04 0.193,-0.045 0.211,-0.057C0.23,-0.068 0.244,-0.083 0.254,-0.101Z" style="fill:white;fill-rule:nonzero;"/>
            </g>
            <g transform="matrix(62.0722,0,0,62.0722,179.958,375.464)">
                <path d="M-0,-0.116C-0,-0.141 0.005,-0.164 0.017,-0.187C0.029,-0.209 0.045,-0.229 0.063,-0.244C0.105,-0.278 0.148,-0.295 0.191,-0.295C0.234,-0.295 0.27,-0.283 0.297,-0.26C0.325,-0.237 0.339,-0.208 0.339,-0.174C0.339,-0.139 0.329,-0.108 0.31,-0.08C0.291,-0.052 0.266,-0.031 0.235,-0.015C0.204,0 0.17,0.008 0.133,0.008C0.096,0.008 0.064,-0.004 0.038,-0.027C0.012,-0.05 -0,-0.08 -0,-0.116ZM0.159,-0.022C0.174,-0.022 0.188,-0.027 0.201,-0.037C0.215,-0.047 0.225,-0.06 0.231,-0.075C0.245,-0.105 0.251,-0.136 0.251,-0.168C0.251,-0.2 0.246,-0.224 0.234,-0.24C0.222,-0.257 0.206,-0.265 0.184,-0.265C0.163,-0.265 0.141,-0.251 0.12,-0.223C0.099,-0.195 0.089,-0.16 0.089,-0.116C0.089,-0.054 0.112,-0.022 0.159,-0.022Z" style="fill:white;fill-rule:nonzero;"/>
            </g>
            <g transform="matrix(62.0722,0,0,62.0722,203.448,375.464)">
                <path d="M0.311,-0L0.239,-0L0.248,-0.032C0.251,-0.045 0.257,-0.063 0.266,-0.088C0.285,-0.141 0.294,-0.182 0.294,-0.212C0.294,-0.225 0.289,-0.231 0.278,-0.231C0.264,-0.231 0.249,-0.223 0.231,-0.207C0.213,-0.191 0.195,-0.172 0.179,-0.149C0.151,-0.111 0.124,-0.069 0.097,-0.023L0.083,-0L0.014,-0C0.014,-0 0.019,-0.015 0.029,-0.046C0.058,-0.131 0.072,-0.181 0.072,-0.197C0.072,-0.212 0.069,-0.22 0.064,-0.22C0.055,-0.22 0.043,-0.209 0.03,-0.187L0.016,-0.163C0.014,-0.158 0.012,-0.156 0.012,-0.155L-0.021,-0.174C0.004,-0.215 0.028,-0.246 0.049,-0.265C0.07,-0.285 0.092,-0.295 0.114,-0.295C0.124,-0.295 0.133,-0.291 0.14,-0.282C0.147,-0.274 0.151,-0.264 0.151,-0.252C0.151,-0.241 0.15,-0.23 0.149,-0.221C0.148,-0.212 0.146,-0.204 0.145,-0.197C0.143,-0.189 0.141,-0.18 0.138,-0.17C0.135,-0.16 0.132,-0.152 0.131,-0.146C0.129,-0.14 0.126,-0.133 0.124,-0.124C0.121,-0.114 0.119,-0.109 0.118,-0.107C0.125,-0.118 0.135,-0.135 0.15,-0.158C0.165,-0.181 0.174,-0.195 0.179,-0.201C0.184,-0.207 0.19,-0.215 0.198,-0.225C0.206,-0.234 0.212,-0.242 0.219,-0.248C0.225,-0.253 0.232,-0.259 0.24,-0.266C0.249,-0.273 0.257,-0.278 0.264,-0.282C0.282,-0.291 0.301,-0.295 0.32,-0.295C0.338,-0.295 0.353,-0.29 0.362,-0.279C0.372,-0.268 0.377,-0.256 0.377,-0.242C0.377,-0.228 0.375,-0.213 0.37,-0.198C0.366,-0.182 0.36,-0.165 0.352,-0.144C0.344,-0.124 0.339,-0.11 0.337,-0.103C0.368,-0.154 0.392,-0.19 0.409,-0.21C0.454,-0.267 0.499,-0.295 0.543,-0.295C0.565,-0.295 0.58,-0.29 0.59,-0.279C0.599,-0.269 0.604,-0.255 0.604,-0.237C0.604,-0.219 0.596,-0.189 0.581,-0.148C0.566,-0.106 0.558,-0.081 0.558,-0.071C0.558,-0.062 0.561,-0.057 0.567,-0.057C0.58,-0.057 0.601,-0.078 0.629,-0.119L0.65,-0.1C0.631,-0.065 0.61,-0.039 0.586,-0.02C0.563,-0.002 0.544,0.008 0.527,0.008C0.511,0.008 0.499,0.002 0.493,-0.008C0.486,-0.019 0.483,-0.032 0.483,-0.047C0.483,-0.061 0.489,-0.088 0.502,-0.125C0.515,-0.163 0.522,-0.192 0.522,-0.212C0.522,-0.225 0.516,-0.231 0.505,-0.231C0.472,-0.231 0.425,-0.183 0.364,-0.088C0.339,-0.049 0.321,-0.02 0.311,-0Z" style="fill:white;fill-rule:nonzero;"/>
            </g>
            <g transform="matrix(62.0722,0,0,62.0722,245.395,375.464)">
                <path d="M0.09,-0.096C0.092,-0.059 0.117,-0.04 0.166,-0.04C0.183,-0.04 0.202,-0.045 0.221,-0.055C0.241,-0.066 0.257,-0.078 0.269,-0.092L0.29,-0.078C0.263,-0.033 0.219,-0.005 0.16,0.005C0.147,0.007 0.135,0.008 0.123,0.008C0.087,0.008 0.058,-0.004 0.035,-0.027C0.011,-0.05 -0,-0.079 -0,-0.112C-0,-0.146 0.01,-0.177 0.03,-0.205C0.051,-0.234 0.076,-0.256 0.107,-0.271C0.138,-0.287 0.168,-0.295 0.198,-0.295C0.228,-0.295 0.254,-0.288 0.276,-0.274C0.298,-0.261 0.309,-0.242 0.31,-0.219C0.31,-0.196 0.304,-0.176 0.29,-0.159C0.276,-0.143 0.258,-0.13 0.236,-0.121C0.194,-0.104 0.152,-0.095 0.111,-0.095L0.09,-0.096ZM0.087,-0.123C0.123,-0.124 0.152,-0.13 0.174,-0.14C0.196,-0.151 0.211,-0.162 0.22,-0.176C0.229,-0.189 0.233,-0.203 0.233,-0.217C0.233,-0.232 0.229,-0.242 0.222,-0.249C0.214,-0.256 0.206,-0.26 0.198,-0.26C0.177,-0.26 0.158,-0.253 0.14,-0.238C0.123,-0.224 0.11,-0.206 0.101,-0.185C0.091,-0.165 0.087,-0.144 0.087,-0.123Z" style="fill:white;fill-rule:nonzero;"/>
            </g>
            <g transform="matrix(62.0722,0,0,62.0722,266.793,375.464)">
                <path d="M0.23,-0.659L0.307,-0.659C0.237,-0.468 0.183,-0.305 0.145,-0.169L0.115,-0.169C0.122,-0.297 0.16,-0.461 0.23,-0.659ZM0.115,-0.088C0.128,-0.088 0.139,-0.084 0.147,-0.076C0.156,-0.069 0.16,-0.057 0.16,-0.041C0.16,-0.025 0.155,-0.013 0.144,-0.003C0.134,0.006 0.122,0.011 0.108,0.011C0.095,0.011 0.084,0.007 0.075,-0.001C0.066,-0.009 0.062,-0.021 0.062,-0.036C0.062,-0.051 0.068,-0.064 0.079,-0.073C0.09,-0.083 0.102,-0.088 0.115,-0.088Z" style="fill:white;fill-rule:nonzero;"/>
            </g>
        </g>
    </g>
</svg>
