<?xml version="1.0" encoding="UTF-8" standalone="no"?>
<!DOCTYPE svg PUBLIC "-//W3C//DTD SVG 1.1//EN" "http://www.w3.org/Graphics/SVG/1.1/DTD/svg11.dtd">
<svg width="100%" height="100%" viewBox="0 0 435 180" version="1.1" xmlns="http://www.w3.org/2000/svg" xmlns:xlink="http://www.w3.org/1999/xlink" xml:space="preserve" xmlns:serif="http://www.serif.com/" style="fill-rule:evenodd;clip-rule:evenodd;stroke-linejoin:round;stroke-miterlimit:1.41421;">
    <g transform="matrix(1,0,0,1,-321.211,-882.199)">
        <g transform="matrix(1,0,0,1,-5.68434e-14,-35.7127)">
            <g transform="matrix(1.12807,0,0,1.05031,394.699,1011.89)">
                <path d="M0,-7.82L-8.108,-5.053L-12.172,-3.672L-16.306,-2.411L-24.461,0.065C-27.256,0.622 -30.01,1.285 -32.511,0.874L-32.614,0.857L-32.635,0.856C-34.636,0.7 -36.559,0.013 -38.13,-1.256C-39.708,-2.511 -40.917,-4.281 -41.777,-6.215C-43.368,-10.181 -44.03,-14.632 -44.069,-19.026C-44.103,-23.441 -43.529,-27.875 -42.491,-32.2C-41.439,-36.528 -39.915,-40.734 -38.235,-44.874C-34.698,-53.091 -30.022,-60.789 -24.901,-68.124C-22.305,-71.784 -19.695,-75.382 -16.897,-78.915C-14.1,-82.434 -10.853,-85.787 -6.792,-88.169L-6.879,-88.116C-6.242,-88.543 -5.539,-88.948 -4.719,-89.225C-3.884,-89.488 -2.953,-89.542 -2.079,-89.401C-1.66,-89.298 -1.219,-89.214 -0.847,-89.038C-0.667,-88.964 -0.443,-88.877 -0.217,-88.774L0.328,-88.384C0.673,-88.138 1.02,-87.89 1.282,-87.581C1.551,-87.281 1.879,-87.002 2.086,-86.674C3.074,-85.411 3.69,-84.034 4.254,-82.708C4.542,-82.043 4.787,-81.379 5.048,-80.745L5.251,-80.238C5.376,-79.987 5.407,-79.704 5.442,-79.523L5.637,-78.474C6.926,-71.888 7.415,-65.126 7.245,-58.469C7.228,-51.793 6.664,-45.173 6.12,-38.567L5.652,-33.611L5.415,-31.134L5.083,-28.671L3.75,-18.815C3.342,-15.523 2.75,-12.263 2.251,-8.987L1.473,-4.077C1.216,-2.44 0.97,-0.801 0.634,0.826C-0.682,7.335 -1.808,13.878 -3.528,20.319C-4.345,23.545 -5.069,26.793 -5.969,30.001C-6.433,31.602 -6.887,33.204 -7.394,34.797C-7.878,36.394 -8.386,37.988 -8.94,39.573C-11.097,45.917 -13.715,52.197 -17.148,58.087C-18.017,59.553 -18.963,60.98 -19.87,62.426C-20.88,63.815 -21.857,65.236 -22.97,66.544C-24.021,67.903 -25.214,69.149 -26.372,70.424C-26.975,71.04 -27.608,71.631 -28.226,72.236C-28.832,72.851 -29.487,73.419 -30.16,73.972C-30.16,73.972 -30.411,74.181 -30.88,74.572C-31.115,74.767 -31.405,75.007 -31.746,75.29C-32.1,75.559 -32.524,75.849 -32.99,76.184C-33.458,76.516 -33.977,76.883 -34.542,77.284C-35.117,77.669 -35.786,78.03 -36.476,78.444C-37.17,78.851 -37.899,79.302 -38.746,79.658C-39.161,79.848 -39.585,80.044 -40.021,80.244C-40.239,80.344 -40.459,80.445 -40.682,80.546L-41.114,80.744C-41.268,80.8 -41.574,80.863 -41.654,80.886C-43.647,81.378 -45.854,81.722 -48.241,81.663C-49.431,81.658 -50.666,81.506 -51.922,81.281C-53.178,81.011 -54.457,80.632 -55.711,80.059C-56.958,79.464 -58.174,78.699 -59.263,77.725C-60.345,76.73 -61.217,75.545 -61.947,74.464C-63.468,72.149 -64.494,69.416 -64.895,66.663C-65.309,63.907 -65.178,61.15 -64.732,58.564C-64.303,55.966 -63.544,53.531 -62.695,51.246C-60.951,46.694 -58.749,42.781 -56.707,39.56C-55.683,37.948 -54.696,36.512 -53.791,35.253C-52.868,34.011 -52.026,32.963 -51.352,32.083C-50.017,30.312 -49.159,29.382 -49.159,29.382C-40.409,19.082 -29.766,10.677 -18.508,3.554C-7.221,-3.581 4.783,-9.379 17.029,-14.461L19.015,-15.295C19.683,-15.56 20.363,-15.795 21.037,-16.046L25.088,-17.528L29.138,-19.008L31.162,-19.746L33.218,-20.385L41.449,-22.911L43.505,-23.541L45.589,-24.076L49.758,-25.135L53.926,-26.191L56.009,-26.717L58.116,-27.149L66.539,-28.865C67.937,-29.176 69.351,-29.397 70.767,-29.605L75.01,-30.256L79.251,-30.904L83.508,-31.437C94.835,-32.876 106.299,-33.943 117.64,-33.374C119.055,-33.271 120.466,-33.101 121.877,-32.967C122.582,-32.89 123.289,-32.836 123.99,-32.741L126.081,-32.382C127.466,-32.118 128.879,-31.962 130.235,-31.609L134.289,-30.537C139.598,-28.794 145.091,-26.763 148.322,-22.722L148.334,-22.706L148.458,-22.583C149.56,-21.486 150.39,-20.226 150.839,-18.852C151.303,-17.481 151.361,-15.988 151.152,-14.482C150.715,-11.452 149.24,-8.433 147.452,-5.626C149.121,-8.501 150.455,-11.572 150.747,-14.521C150.887,-15.986 150.764,-17.392 150.278,-18.641C149.804,-19.894 148.996,-21.017 147.929,-22.001L147.818,-22.103L147.729,-22.204C144.967,-25.353 140.733,-27.097 136.159,-28.587C135.594,-28.758 135.033,-28.997 134.464,-29.115L132.762,-29.505L129.36,-30.295L125.838,-30.794C124.664,-30.961 123.494,-31.15 122.295,-31.201L118.719,-31.459C117.528,-31.567 116.334,-31.53 115.142,-31.573L113.352,-31.611C112.756,-31.63 112.16,-31.643 111.556,-31.585L107.943,-31.354C105.534,-31.184 103.128,-31.088 100.715,-30.86L93.471,-30.065C83.834,-28.861 74.152,-27.413 64.673,-25.318L57.569,-23.73C55.209,-23.164 52.876,-22.473 50.528,-21.851C48.191,-21.19 45.823,-20.628 43.511,-19.885L36.582,-17.638C27.365,-14.581 18.364,-11.011 9.568,-6.8C0.774,-2.649 -7.824,1.895 -15.957,7.131C-24.121,12.314 -31.773,18.25 -38.642,24.956C-42.019,28.358 -45.291,31.879 -48.151,35.705C-51.116,39.442 -53.691,43.492 -55.845,47.678C-57.969,51.867 -59.647,56.295 -60.147,60.729C-60.274,61.833 -60.325,62.934 -60.269,64.013C-60.231,65.096 -60.087,66.158 -59.837,67.18C-59.356,69.25 -58.448,71.095 -57.113,72.815C-54.856,75.968 -50.447,77.065 -46.114,76.648C-45.031,76.541 -43.944,76.37 -42.889,76.086C-42.742,76.048 -42.823,76.077 -42.719,76.032L-42.383,75.873L-41.616,75.516L-40.082,74.801C-39.109,74.203 -38.103,73.669 -37.15,73.031C-36.227,72.338 -35.247,71.736 -34.366,70.978C-30.756,68.071 -27.55,64.566 -24.786,60.773C-22.076,56.929 -19.68,52.806 -17.698,48.465C-15.72,44.119 -14.051,39.61 -12.564,35.009L-11.48,31.543L-10.457,28.05C-9.817,25.708 -9.264,23.338 -8.664,20.985L-6.894,13.911C-6.314,11.55 -5.898,9.144 -5.392,6.763L-3.936,-0.4C-3.429,-2.782 -3.1,-5.206 -2.673,-7.608C-1.868,-12.422 -1.018,-17.23 -0.373,-22.063C0.299,-26.893 1.102,-31.711 1.514,-36.564C2.503,-46.254 3.296,-55.997 3.086,-65.572C3.086,-66.768 2.957,-67.955 2.888,-69.147L2.763,-70.932L2.554,-72.706C2.407,-73.887 2.304,-75.077 2.075,-76.24L1.775,-77.994L1.627,-78.86L1.619,-78.915L1.625,-78.901L1.461,-79.322C1.003,-80.498 0.612,-81.604 0.147,-82.562C-0.312,-83.521 -0.813,-84.403 -1.384,-84.94C-1.454,-85.013 -1.518,-85.098 -1.588,-85.164L-1.808,-85.316C-1.969,-85.421 -2.053,-85.539 -2.098,-85.529C-2.239,-85.579 -2.438,-85.695 -2.572,-85.704C-2.646,-85.722 -2.719,-85.743 -2.792,-85.768C-2.858,-85.77 -2.921,-85.771 -2.985,-85.78C-3.447,-85.851 -4.018,-85.62 -4.859,-85.086L-4.963,-85.02L-5.049,-84.972C-8.502,-83.009 -11.526,-80.066 -14.263,-76.725C-15.645,-75.071 -16.985,-73.305 -18.357,-71.542C-19.677,-69.775 -21.041,-68.036 -22.324,-66.246C-27.497,-59.119 -32.209,-51.69 -35.823,-43.782C-37.537,-39.81 -39.122,-35.732 -40.232,-31.597C-41.332,-27.463 -41.991,-23.213 -42.071,-18.989L-42.105,-17.405L-42.013,-15.835L-41.922,-14.265C-41.879,-13.744 -41.776,-13.235 -41.707,-12.719L-41.479,-11.177C-41.412,-10.66 -41.24,-10.182 -41.128,-9.683L-40.755,-8.198C-40.655,-7.68 -40.423,-7.288 -40.269,-6.824C-39.544,-5.051 -38.516,-3.458 -37.203,-2.342C-35.894,-1.215 -34.296,-0.57 -32.514,-0.36L-32.355,-0.341L-32.271,-0.323C-30.142,0.126 -27.432,-0.388 -24.631,-0.86L-16.475,-3.032L-12.301,-4.143L-8.201,-5.37L0,-7.82Z" style="fill-rule:nonzero;"/>
            </g>
            <g transform="matrix(1.12807,0,0,1.05031,418.326,1016.43)">
                <path d="M0,40.579C7.134,36.263 12.404,28.6 17.283,21.997C19.655,18.786 21.707,15.403 23.593,11.889C24.921,9.416 26.006,4.872 28.252,3.115L27.01,1.219C26.726,0.669 26.095,5.097 26.041,5.633C25.687,9.168 25.306,12.7 24.918,16.231C24.315,21.724 23.73,27.85 25.647,33.152C26.107,34.426 27.684,38.256 29.344,38.27C35.393,38.324 40.302,29.951 43.475,25.685C44.965,23.682 46.023,21.467 47.274,19.308C47.975,18.1 48.822,17.049 49.748,16.012C52.06,13.424 52.249,15.311 52.692,18.225C53.353,22.565 52.978,27.014 54.956,31.006C60.23,41.65 69.97,13.11 74.476,16.385C73.884,15.279 73.292,14.174 72.699,13.068C75.118,19.392 67.663,29.69 74.215,35.012C74.249,35.024 74.282,35.038 74.315,35.051C80.184,30.975 84.424,23.283 89.057,17.854C90.243,16.465 91.176,14.918 92.434,13.556C93.354,13.052 93.805,12.254 93.785,11.162C93.975,12.384 94.073,13.612 94.082,14.848C94.226,18.171 93.776,21.37 94.749,24.6C98.023,35.473 110.21,35.529 117.923,28.91C118.484,28.429 115.963,24.846 115.925,24.879C110.928,29.166 104.361,31.105 98.123,28.123C93.813,26.063 97.046,16.102 94.931,11.975C94.584,11.299 94.046,9.647 93.323,9.211C90.494,7.506 88.433,11.751 87.059,13.823C85.732,15.821 73.247,31.732 71.934,30.666L73.817,34.322C72.489,27.099 77.376,19.51 73.043,12.897C69.792,7.938 59.346,33.258 54.301,28.909C54.838,29.873 55.376,30.836 55.914,31.799C54.458,28.4 55.199,23.618 54.425,19.975C53.926,17.622 53.367,15.387 52.141,13.297C50.567,10.615 49.016,10.562 46.865,12.972C43.912,16.278 42.089,20.83 39.421,24.417C36.762,27.991 33.799,31.483 29.939,33.784C26.826,35.64 26.821,33.259 26.555,30.801C26.233,27.838 26.531,24.795 26.791,21.841C27.212,17.054 27.206,11.49 28.487,6.872C29.118,4.599 28.511,2.947 27.496,0.978C27.438,0.865 26.45,-1.071 26.254,-0.918C24.382,0.547 23.383,4.287 22.358,6.371C20.351,10.452 17.936,14.276 15.285,17.965C10.523,24.59 5.082,32.264 -1.998,36.548C-2.446,36.818 -0.247,40.729 0,40.579" style="fill-rule:nonzero;"/>
            </g>
            <g transform="matrix(1.12807,0,0,1.05031,560.542,1032.79)">
                <path d="M0,-2.04C5.583,-3.974 15.539,-5.479 14.601,-13.354C14.359,-15.382 11.072,-17.714 9.364,-18.404C3.436,-20.801 -0.653,-14.604 -3.417,-10.278C-7.175,-4.399 -10.567,3.534 -10.265,10.583C-10.134,13.643 -8.035,15.478 -5.684,17.073C-3.197,18.761 -0.686,17.852 1.796,16.565C5.703,14.543 9.089,11.364 12.267,8.373C14.702,6.082 18.716,0.002 21.814,-0.265L18.426,-2.737C20.742,-0.124 17.411,5.276 18.831,8.336C19.56,9.908 21.085,11.036 22.502,11.998C28.015,15.739 34.879,0.713 39.24,-0.8C38.063,-1.686 36.886,-2.572 35.708,-3.459C36.515,-1.464 35.154,1.948 35.06,4.026C34.952,6.413 34.789,8.355 35.585,10.617C36.167,12.269 38.629,13.595 40.08,14.297C43.052,15.735 48.414,8.486 50.19,6.825C51.773,5.345 53.582,3.957 55.56,3.075C58.024,1.977 63.003,4.651 65.308,5.64C64.602,5.337 63.169,3.395 61.96,2.876C57.097,0.789 53.164,-1.165 48.688,2.394C46.311,4.284 39.873,13.029 36.403,11.351C37.474,12.206 38.544,13.063 39.615,13.919C37.766,11.284 38.559,8.012 38.694,5.022C38.78,3.132 39.959,0.939 39.216,-0.901C38.97,-1.511 36.352,-3.791 35.686,-3.56C33.12,-2.669 30.724,1.252 28.926,3.209C26.948,5.362 23.397,10.018 20.062,9.752L23.099,11.973C19.675,8.778 24.761,2.447 21.4,-0.806C19.634,-2.515 18.054,-3.991 16.1,-1.728C11.296,3.835 5.258,9.514 -0.99,13.368C-2.346,14.205 -3.798,14.84 -5.348,15.201C-7.383,15.674 -7.107,14.367 -5.919,16.167C-6.748,14.912 -6.716,13.219 -6.778,11.78C-7.054,5.329 -2.972,-2.096 0.137,-7.519C1.597,-10.065 3.518,-12.411 5.656,-14.407C6.594,-15.283 7.573,-15.675 8.767,-16.046C9.441,-16.096 10.116,-16.145 10.791,-16.195C12.036,-16.294 12.167,-15.873 11.187,-14.934C11.987,-8.216 0.751,-6.291 -3.555,-4.8C-3.118,-4.951 -1.022,-1.686 0,-2.04" style="fill-rule:nonzero;"/>
            </g>
            <g transform="matrix(1.12807,0,0,1.05031,650.099,1032.98)">
                <path d="M0,-1.982C0.426,-5.761 2.647,-16.656 -4.011,-12.844C-8.712,-10.153 -11.117,-5.138 -12.949,-0.176C-14.266,3.393 -14.646,7.589 -13.7,11.288C-13.01,13.989 -9.854,11.789 -8.613,11.079C-2.6,7.636 1.514,1.209 5.904,-3.995C6.37,-4.653 6.91,-5.242 7.523,-5.758C8.712,-7.109 8.254,-6.793 6.15,-4.809C6.7,-4.362 6.042,-2.419 5.953,-1.841C5.36,2.002 3.245,5.457 8.031,7.422C11.825,8.979 17.775,7.444 21.654,6.988C27.499,6.3 33.337,5.626 39.2,5.109C49.932,4.163 60.748,3.58 71.512,4.203C77.378,4.541 97.81,5.387 86.465,14.674C87.226,14.052 89.192,13.37 90.232,12.518C92.535,10.633 95.54,8.058 92.847,5.171C90.262,2.401 83.786,2.589 80.309,2.227C69.896,1.139 59.31,1.645 48.892,2.359C38.05,3.102 27.271,5.018 16.43,5.502C12.663,5.671 9.095,5.036 8.599,0.782C8.35,-1.353 11.623,-5.797 9.52,-7.51C9.492,-7.505 9.463,-7.501 9.435,-7.496C7.269,-6.571 5.268,-5.429 3.757,-3.602C1.787,-1.221 -0.325,1.093 -2.322,3.465C-3.453,4.809 -4.603,6.135 -5.758,7.456C-6.534,8.336 -7.321,9.207 -8.12,10.068C-9.185,10.898 -9.285,11.095 -8.418,10.659C-8.082,10.498 -7.745,10.337 -7.408,10.177C-13.884,10.855 -8.432,-4.356 -7.125,-6.979C-6.549,-8.137 -5.786,-9.179 -5.176,-10.317C-4.669,-11.225 -4.067,-12.067 -3.368,-12.844C-5.097,-12.193 -5.28,-11.588 -3.919,-11.031C-1.695,-9.415 -3.624,-1.901 -3.873,0.309C-3.789,-0.439 -0.115,-0.959 0,-1.982" style="fill-rule:nonzero;"/>
            </g>
            <g transform="matrix(1.12807,0,0,1.05031,450.17,1007.82)">
                <path d="M0,5C3.224,5 3.224,0 0,0C-3.224,0 -3.224,5 0,5" style="fill-rule:nonzero;"/>
            </g>
        </g>
    </g>
</svg>
