<?xml version="1.0" standalone="no"?>
<!DOCTYPE svg PUBLIC "-//W3C//DTD SVG 20010904//EN"
 "http://www.w3.org/TR/2001/REC-SVG-20010904/DTD/svg10.dtd">
<svg version="1.0" xmlns="http://www.w3.org/2000/svg"
 width="370.000000pt" height="370.000000pt" viewBox="0 0 370.000000 370.000000"
 preserveAspectRatio="xMidYMid meet">
<metadata>
Created by potrace 1.11, written by Peter Selinger 2001-2013
</metadata>
<g transform="translate(0.000000,370.000000) scale(0.100000,-0.100000)"
fill="#000000" stroke="none">
<path d="M1853 3263 c-16 -6 -30 -59 -38 -143 -3 -36 -8 -72 -10 -80 -2 -8 -7
-42 -10 -75 -3 -33 -8 -71 -10 -85 -2 -14 -6 -50 -10 -80 -3 -30 -8 -66 -10
-80 -2 -14 -7 -47 -10 -75 -8 -68 -14 -123 -20 -165 -3 -19 -7 -55 -10 -80 -3
-25 -10 -79 -15 -121 -6 -41 -12 -93 -15 -115 -6 -58 -15 -136 -20 -164 -2
-14 -7 -50 -10 -80 -4 -30 -10 -82 -15 -115 -5 -33 -12 -87 -15 -120 -4 -33
-8 -71 -10 -85 -2 -14 -9 -63 -15 -110 -11 -93 -18 -131 -23 -136 -2 -2 -24
40 -50 94 -25 53 -76 160 -112 237 -37 77 -83 174 -102 215 -19 41 -58 122
-85 180 -113 236 -167 348 -196 410 -126 271 -193 400 -210 409 -16 8 -25 7
-44 -8 l-23 -19 23 -109 c13 -59 25 -119 28 -133 3 -14 7 -33 10 -42 3 -10 8
-30 10 -45 6 -35 71 -333 85 -393 6 -25 13 -55 15 -68 3 -13 16 -76 30 -140
14 -64 28 -128 30 -142 3 -14 14 -65 25 -115 12 -49 23 -101 25 -115 3 -14 7
-33 10 -42 3 -10 8 -30 10 -45 3 -16 14 -66 24 -113 10 -46 18 -86 16 -87 -1
-2 -56 63 -122 143 -65 81 -124 152 -129 158 -6 6 -51 60 -100 121 -50 60 -97
119 -107 130 -61 74 -146 177 -177 214 -20 25 -59 72 -86 105 -28 34 -101 124
-164 201 -123 152 -155 185 -176 185 -23 0 -47 -31 -41 -55 6 -22 166 -350
646 -1320 138 -280 274 -556 302 -613 27 -56 58 -107 68 -112 22 -12 39 -6
240 80 273 117 252 112 440 110 306 -3 445 -8 475 -18 17 -6 80 -33 140 -62
61 -29 143 -68 184 -87 45 -21 82 -32 95 -29 15 4 49 58 120 188 151 279 530
976 563 1038 17 30 101 186 188 345 86 160 175 322 196 361 21 39 39 79 39 87
0 21 -38 47 -59 40 -16 -6 -26 -16 -134 -138 -34 -38 -84 -94 -112 -125 -27
-31 -81 -91 -120 -134 -38 -44 -75 -84 -80 -90 -6 -6 -66 -74 -134 -151 -69
-77 -153 -172 -188 -211 -35 -40 -72 -82 -83 -94 -55 -64 -161 -181 -202 -225
l-47 -50 9 35 c8 28 53 237 76 348 2 13 15 74 29 135 26 122 55 258 61 296 3
12 11 51 19 85 8 33 16 72 18 86 3 14 10 43 15 65 6 22 13 51 15 65 10 52 59
287 69 325 10 39 12 50 24 111 8 45 -11 76 -44 72 -32 -4 -43 -23 -273 -513
-25 -55 -70 -149 -99 -210 -62 -130 -132 -278 -167 -355 -14 -30 -57 -120 -95
-200 -39 -80 -79 -164 -89 -187 -19 -44 -26 -52 -26 -30 0 6 -3 41 -6 77 -4
36 -9 101 -12 145 -3 44 -8 96 -10 115 -3 19 -7 67 -10 105 -2 39 -7 90 -9
115 -3 25 -8 77 -11 115 -8 111 -15 196 -21 253 -3 30 -7 79 -9 110 -3 31 -7
77 -10 102 -2 25 -7 81 -11 125 -3 44 -7 94 -9 110 -1 17 -6 73 -10 125 -3 52
-8 106 -10 119 -2 13 -7 65 -11 115 -8 118 -29 151 -81 129z"/>
</g>
</svg>
